<svg width="30" height="22" viewBox="0 0 30 22" fill="none" xmlns="http://www.w3.org/2000/svg">
<path d="M10.6565 21.9742C10.4931 21.9742 10.3414 21.8926 10.2597 21.7409C10.143 21.5308 10.2364 21.2625 10.4464 21.1458C11.0765 20.819 11.94 20.2006 12.4301 19.1504C13.0602 17.8086 12.8852 16.35 12.6168 16.2333C12.5468 16.1983 12.2901 16.3383 12.1267 16.42C11.7183 16.63 11.1465 16.9217 10.4814 16.7C9.82799 16.4783 9.51294 15.9066 9.36125 15.6265C8.35775 13.8179 8.03103 9.09214 9.06954 6.73509C9.41959 5.9533 9.88634 5.48655 10.4698 5.34653C11.0649 5.20651 11.5549 5.45155 11.9517 5.64992C12.2784 5.81327 12.4418 5.88328 12.5351 5.82494C12.9435 5.5799 12.9318 4.07466 12.3484 2.88446C11.8467 1.83429 10.9832 1.22753 10.3414 0.90081C10.1314 0.795793 10.038 0.527416 10.1547 0.317381C10.2597 0.107347 10.5281 0.0139945 10.7381 0.13068C11.4966 0.515743 12.5234 1.23919 13.1302 2.51107C13.737 3.77127 14.0287 5.94162 12.9785 6.5834C12.4534 6.91011 11.94 6.65341 11.5433 6.44338C11.2399 6.29169 10.9482 6.13999 10.6681 6.21C10.2831 6.30335 10.0147 6.74676 9.863 7.09681C8.95285 9.15048 9.2329 13.6195 10.1197 15.2065C10.2714 15.4748 10.4464 15.7666 10.7615 15.8716C11.0532 15.9766 11.3332 15.8482 11.73 15.6382C12.115 15.4398 12.5468 15.2181 13.0018 15.4398C13.982 15.9066 13.9237 18.0186 13.2236 19.5238C12.6285 20.8074 11.6016 21.5308 10.8432 21.9276C10.7965 21.9626 10.7265 21.9742 10.6565 21.9742Z" fill="#3D3D3C"/>
<path d="M9.28008 7.52872L1.39214 7.56373C1.1471 7.56373 0.94873 7.36536 0.94873 7.13199C0.94873 6.88695 1.1471 6.68858 1.38047 6.68858L9.26842 6.65358C9.51346 6.65358 9.71182 6.85194 9.71182 7.08531C9.72349 7.33035 9.52512 7.52872 9.28008 7.52872Z" fill="#3D3D3C"/>
<path d="M9.31451 15.4167L1.42657 15.4517C1.18153 15.4517 0.983154 15.2534 0.983154 15.02C0.983154 14.775 1.18152 14.5766 1.41489 14.5766L9.30285 14.5416C9.54789 14.5416 9.74625 14.74 9.74625 14.9733C9.74625 15.2067 9.55955 15.4167 9.31451 15.4167Z" fill="#3D3D3C"/>
<path d="M19.8508 21.9396C19.7808 21.9396 19.7108 21.9279 19.6524 21.8929C18.894 21.5078 17.8671 20.7844 17.2604 19.5125C16.5369 18.0189 16.4669 15.9069 17.4471 15.4285C17.9021 15.2068 18.3339 15.4285 18.7189 15.6152C19.1157 15.8136 19.3957 15.9419 19.6874 15.8369C20.0142 15.7202 20.2008 15.3702 20.3175 15.1601C21.181 13.5615 21.426 9.09248 20.5042 7.05049C20.3409 6.70043 20.0725 6.25702 19.6874 6.17534C19.4541 6.117 19.3024 5.88363 19.3607 5.65026C19.419 5.41689 19.6524 5.2652 19.8858 5.32354C20.4692 5.46357 20.9476 5.91863 21.2977 6.70042C22.3595 9.04581 22.0678 13.7716 21.0877 15.5919C20.936 15.8719 20.6209 16.4553 19.9791 16.677C19.314 16.9104 18.7423 16.6187 18.3339 16.4087C18.1705 16.327 17.9021 16.1986 17.8438 16.222C17.5754 16.3503 17.4237 17.8089 18.0655 19.1391C18.5672 20.1893 19.4307 20.7961 20.0725 21.1228C20.2825 21.2278 20.3759 21.4962 20.2592 21.7062C20.1658 21.8462 20.0142 21.9396 19.8508 21.9396Z" fill="#3D3D3C"/>
<path d="M18.0313 5.74339C17.8446 5.74339 17.6813 5.62671 17.6112 5.44002C16.6661 2.62789 18.8481 0.445866 19.5599 0.0841409C19.7699 -0.0325448 20.0383 0.060808 20.155 0.270842C20.2717 0.480876 20.1783 0.749247 19.9683 0.865932C19.6532 1.02929 17.6463 2.76791 18.4514 5.15996C18.5331 5.39334 18.4047 5.63838 18.1713 5.72006C18.1247 5.73173 18.078 5.74339 18.0313 5.74339Z" fill="#3D3D3C"/>
<path d="M28.9883 7.44712L21.1004 7.48212C20.8554 7.48212 20.657 7.28375 20.657 7.05038C20.657 6.80534 20.8554 6.60698 21.0887 6.60698L28.9767 6.57198C29.2217 6.57198 29.4201 6.77034 29.4201 7.00371C29.4317 7.24875 29.2334 7.44712 28.9883 7.44712Z" fill="#3D3D3C"/>
<path d="M29.0228 15.3348L21.1348 15.3698C20.8898 15.3698 20.6914 15.1715 20.6914 14.9381C20.6914 14.6931 20.8898 14.4947 21.1231 14.4947L29.0111 14.4597C29.2561 14.4597 29.4545 14.6581 29.4545 14.8914C29.4662 15.1365 29.2678 15.3348 29.0228 15.3348Z" fill="#3D3D3C"/>
</svg>
