<svg width="24" height="24" viewBox="0 0 24 24" fill="none" xmlns="http://www.w3.org/2000/svg">
<path d="M19 7H5C3.9 7 3 7.9 3 9V19C3 20.1 3.9 21 5 21H19C20.1 21 21 20.1 21 19V9C21 7.9 20.1 7 19 7Z" stroke="#666" stroke-width="2" stroke-linecap="round" stroke-linejoin="round"/>
<path d="M16 3H8C6.9 3 6 3.9 6 5V7H18V5C18 3.9 17.1 3 16 3Z" stroke="#666" stroke-width="2" stroke-linecap="round" stroke-linejoin="round"/>
<path d="M12 15C12.5523 15 13 14.5523 13 14C13 13.4477 12.5523 13 12 13C11.4477 13 11 13.4477 11 14C11 14.5523 11.4477 15 12 15Z" stroke="#666" stroke-width="2" stroke-linecap="round" stroke-linejoin="round"/>
</svg>
